<svg version="1.1" xmlns="http://www.w3.org/2000/svg" viewBox="-1020.0242248118163 -2639.717323519743 6143.056463866544 4732.07357523393"><desc>Created with Snap</desc><defs><linearGradient x1="-1020.0242248118163" y1="-2639.717323519743" x2="5123.032239054727" y2="-2639.717323519743" gradientUnits="userSpaceOnUse" id="linearGradientSks7ce1w0j4"><stop offset="0%" stop-color="#0560af"></stop><stop offset="100%" stop-color="#bbe5e8"></stop></linearGradient></defs><g><rect x="-1020.0242248118163" y="-2639.717323519743" width="6143.056463866544" height="4732.07357523393" fill="url('#linearGradientSks7ce1w0j4')"></rect><g transform="matrix(13.899,0,0,13.899,-728.298,-3053.4828)">
<g id="gSks7ce1w0in">
	<g>
		<path d="M201.21243,348.1283c-10.49316,0-20.94092-0.78418-31.23291-2.37207
			c-45.83106-7.06934-85.31641-28.95801-114.188-63.30078l0,0c-19.96777-23.75195-36.14941-53.38672-45.56494-83.44531
			c-9.9082-31.6333-11.77832-61.13428-5.4082-85.31397c6.92285-26.27734,23.61719-45.02197,48.27783-54.20703
			c57.13867-21.28027,86.83985,6.06152,115.56251,32.50439c6.1084,5.62354,12.4248,11.43799,18.95068,16.75293
			c27.20117,22.15284,50.9082,14.73486,78.36035,6.14551c17.17383-5.37305,34.92383-10.93262,55.42676-9.97949
			c54.07617,2.51025,71.06934,29.24317,75.80273,51.22706c5.5791,25.91162-2.82129,60.30322-23.04785,94.35596
			c-19.3125,32.51367-46.77734,60.03027-73.4668,73.60645C269.6055,339.90857,235.17679,348.1283,201.21243,348.1283z
			 M59.61868,279.23865c28.08057,33.40137,66.50635,54.69434,111.12305,61.57617
			c42.57764,6.56641,87.92139-0.9502,127.67529-21.16992c25.88184-13.16406,52.58594-39.96875,71.43555-71.70312
			c19.58984-32.98047,27.77539-66.05762,22.45898-90.74951c-2.95117-13.70654-9.9541-24.65137-20.81445-32.53028
			c-12.13281-8.80371-29.06738-13.76758-50.33301-14.75439c-19.60645-0.91602-36.94141,4.51221-53.70215,9.75635
			c-27.62988,8.64503-53.72656,16.80714-83.00977-7.04053c-6.64355-5.41064-13.0166-11.27734-19.18018-16.95166
			c-28.88477-26.59131-56.16749-51.70752-110.43067-31.49707c-23.40088,8.71582-38.604,25.80566-45.1875,50.79541
			c-6.13037,23.26807-4.28223,51.81153,5.34424,82.54591C24.22024,226.95837,40.06692,255.98083,59.61868,279.23865z" fill="#292930" style=""></path>
	</g>
</g>


<desc>Created with Snap</desc><defs></defs></g><g><g transform="matrix(1.024,0,0,-1.024,0,0)"><path d="M471 -4Q455 -4 445 1Q436 7 431 16Q426 25 424 37Q422 50 421 64Q396 33 356 12Q317 -9 256 -9Q217 -9 176 2Q136 14 103 42Q70 71 49 119Q28 167 28 240Q28 297 42 347Q56 397 84 434Q113 472 156 494Q199 516 257 516Q308 516 348 497Q388 479 420 437Q420 449 421 461Q422 474 426 484Q431 495 441 501Q451 508 468 508Q483 508 496 496Q509 484 511 444Q514 391 515 349Q517 307 517 262Q517 207 516 161Q515 115 511 63Q509 40 505 26Q502 13 497 6Q492 0 485 -2Q478 -4 471 -4ZM417 250Q417 302 401 335Q386 368 362 386Q339 405 312 412Q285 419 262 419Q226 419 200 406Q175 393 159 370Q143 348 135 317Q128 287 128 251Q128 163 166 121Q205 79 271 79Q310 79 337 92Q365 106 382 129Q400 152 408 183Q417 215 417 250ZM810 522Q831 522 863 518Q895 515 924 505Q953 496 974 479Q995 462 995 436Q995 421 986 410Q978 399 960 399Q947 399 930 403Q914 407 894 412Q875 418 852 422Q830 426 805 426Q763 426 736 413Q710 400 710 372Q710 356 719 345Q729 334 745 325Q762 317 784 311Q807 305 832 299Q863 291 893 281Q924 271 948 253Q972 236 987 209Q1002 183 1002 144Q1002 70 946 26Q890 -17 781 -17Q757 -17 724 -14Q691 -10 662 -1Q633 9 612 26Q592 44 592 73Q592 93 601 103Q611 114 625 114Q636 114 648 107Q660 100 677 92Q694 84 718 77Q742 70 777 70Q790 70 811 71Q832 73 852 80Q873 87 887 99Q902 112 902 135Q902 153 892 165Q882 178 865 187Q848 196 825 202Q803 209 778 216Q749 224 719 234Q690 244 666 260Q642 276 627 300Q612 325 612 361Q612 395 626 424Q640 454 666 476Q692 498 728 510Q765 522 810 522ZM1328 411Q1291 411 1261 400Q1232 389 1195 370Q1195 369 1195 351Q1195 333 1194 305Q1194 277 1193 242Q1193 208 1192 173Q1192 139 1190 108Q1189 77 1188 56Q1186 35 1183 23Q1181 11 1177 5Q1174 0 1168 -1Q1162 -2 1155 -2Q1138 -2 1128 -1Q1119 1 1113 6Q1107 12 1104 23Q1102 34 1100 53Q1098 72 1096 105Q1095 139 1094 180Q1093 222 1092 269Q1092 316 1092 362Q1092 408 1092 459Q1093 511 1094 558Q1095 606 1096 643Q1097 681 1099 699Q1101 725 1108 744Q1116 763 1142 763Q1162 763 1174 749Q1187 735 1189 696Q1191 661 1192 598Q1194 536 1195 458Q1209 469 1229 478Q1249 488 1271 494Q1293 501 1316 505Q1339 509 1359 509Q1407 509 1442 486Q1478 464 1499 422Q1513 395 1520 362Q1527 330 1530 294Q1531 278 1532 262Q1533 247 1533 229Q1534 212 1534 190Q1534 168 1534 138Q1534 108 1533 82Q1532 57 1527 38Q1523 20 1513 9Q1503 -1 1485 -1Q1459 -1 1446 15Q1434 32 1434 55Q1434 56 1434 76Q1434 96 1433 122Q1433 149 1432 176Q1432 203 1431 220Q1430 236 1428 254Q1427 273 1424 292Q1422 311 1418 328Q1414 346 1408 360Q1394 393 1373 402Q1352 411 1328 411ZM1759 654Q1759 594 1755 528Q1752 463 1747 401Q1760 428 1781 447Q1802 467 1827 479Q1853 491 1881 497Q1909 503 1935 503Q1980 503 2019 486Q2059 470 2088 438Q2118 407 2134 360Q2151 314 2151 254Q2151 196 2134 148Q2117 100 2083 65Q2050 31 2000 12Q1951 -7 1887 -7Q1800 -7 1750 28Q1701 63 1677 121Q1653 180 1647 256Q1642 332 1642 415Q1642 499 1645 567Q1648 635 1654 677Q1660 715 1674 731Q1688 747 1711 747Q1728 747 1738 739Q1748 732 1752 719Q1757 706 1758 689Q1759 673 1759 654ZM1907 404Q1878 404 1851 394Q1825 385 1804 365Q1784 345 1772 314Q1760 284 1760 241Q1760 165 1797 125Q1835 86 1898 86Q1924 86 1951 93Q1978 101 2000 119Q2022 138 2036 169Q2050 200 2050 246Q2050 287 2038 317Q2027 347 2007 366Q1987 386 1961 395Q1935 404 1907 404ZM2471 184Q2436 184 2397 189Q2359 195 2314 213Q2323 152 2364 121Q2406 90 2484 90Q2512 90 2534 93Q2557 97 2574 101Q2591 106 2604 109Q2617 113 2628 113Q2642 113 2655 104Q2668 96 2668 76Q2668 51 2647 35Q2627 19 2597 9Q2568 0 2535 -4Q2502 -7 2477 -7Q2418 -7 2368 9Q2319 25 2283 57Q2247 90 2227 138Q2207 186 2207 250Q2207 312 2226 360Q2246 408 2280 441Q2314 474 2360 491Q2407 508 2461 508Q2503 508 2542 497Q2582 486 2612 464Q2643 442 2661 408Q2680 375 2680 330Q2680 290 2665 262Q2650 234 2622 217Q2595 200 2556 192Q2518 184 2471 184ZM2464 416Q2437 416 2412 409Q2387 403 2366 388Q2346 374 2332 350Q2318 327 2313 292Q2351 275 2387 268Q2423 262 2463 262Q2522 262 2550 276Q2579 291 2579 329Q2579 364 2552 390Q2526 416 2464 416ZM2780 61Q2776 96 2775 146Q2774 196 2774 267Q2774 337 2774 380Q2775 423 2780 456Q2785 497 2795 509Q2806 521 2823 521Q2835 521 2844 519Q2854 517 2861 510Q2869 504 2873 492Q2877 480 2877 459Q2877 455 2878 451Q2878 447 2878 442Q2879 438 2879 432Q2906 466 2940 490Q2975 514 3019 514Q3078 514 3078 465Q3078 447 3070 435Q3063 423 3049 415Q3036 408 3018 404Q3001 400 2980 396Q2948 390 2920 373Q2892 357 2882 332Q2882 313 2882 304Q2883 295 2883 289Q2884 283 2884 276Q2884 269 2884 254Q2884 203 2882 158Q2880 114 2878 62Q2877 38 2872 25Q2868 12 2861 5Q2855 -2 2847 -4Q2839 -5 2831 -5Q2803 -5 2793 7Q2784 20 2780 61ZM3157 61Q3153 96 3152 146Q3151 196 3151 267Q3151 337 3151 380Q3152 423 3157 456Q3162 497 3172 509Q3183 521 3200 521Q3212 521 3221 519Q3231 517 3238 510Q3246 504 3250 492Q3254 480 3254 459Q3254 455 3255 451Q3255 447 3255 442Q3256 438 3256 432Q3283 466 3317 490Q3352 514 3396 514Q3455 514 3455 465Q3455 447 3447 435Q3440 423 3426 415Q3413 408 3395 404Q3378 400 3357 396Q3325 390 3297 373Q3269 357 3259 332Q3259 313 3259 304Q3260 295 3260 289Q3261 283 3261 276Q3261 269 3261 254Q3261 203 3259 158Q3257 114 3255 62Q3254 38 3249 25Q3245 12 3238 5Q3232 -2 3224 -4Q3216 -5 3208 -5Q3180 -5 3170 7Q3161 20 3157 61ZM3646 -183Q3633 -206 3621 -217Q3610 -228 3595 -228Q3581 -228 3567 -219Q3553 -210 3553 -194Q3553 -179 3563 -151Q3574 -123 3589 -90Q3605 -57 3622 -22Q3639 13 3653 42L3660 57Q3630 116 3598 183Q3567 250 3541 310Q3515 370 3498 414Q3482 459 3482 473Q3482 486 3492 495Q3503 505 3519 505Q3533 505 3546 499Q3559 494 3570 475Q3586 445 3603 406Q3621 368 3638 326Q3656 284 3674 241Q3693 198 3712 158Q3734 199 3759 244Q3784 289 3807 331Q3831 373 3851 408Q3871 444 3885 468Q3899 491 3913 501Q3927 511 3942 511Q3952 511 3962 502Q3972 494 3972 480Q3972 459 3953 412Q3935 366 3906 305Q3877 244 3840 174Q3804 105 3768 38Q3732 -28 3699 -86Q3667 -144 3646 -183Z" fill="#292929" style=""></path></g></g></g></svg>